<svg xmlns="http://www.w3.org/2000/svg" width="64" height="64" enable-background="new 0 0 64 64" viewBox="0 0 64 64" id="fashion">
  <g>
    <linearGradient id="a" x1="17.543" x2="46.458" y1="2.043" y2="30.958" gradientUnits="userSpaceOnUse">
      <stop offset="0" stop-color="#ffcd31"></stop>
      <stop offset="1" stop-color="#f79025"></stop>
    </linearGradient>
    <path fill="url(#a)" d="M53.881,15.526l-7-13C46.706,2.202,46.368,2,46,2h-9c-0.553,0-1,0.448-1,1
		c0,2.211-1.794,4.01-4,4.01S28,5.211,28,3c0-0.552-0.447-1-1-1h-9c-0.368,0-0.706,0.202-0.881,0.526l-7,13
		c-0.132,0.245-0.155,0.534-0.065,0.797c0.09,0.264,0.286,0.478,0.54,0.591l6.99,3.105l1.423,12.097C19.066,32.621,19.493,33,20,33
		h12h12c0.507,0,0.934-0.379,0.993-0.883l1.423-12.097l6.99-3.105c0.254-0.113,0.45-0.327,0.54-0.591
		C54.036,16.06,54.013,15.771,53.881,15.526z M46.688,17.709l0.305-2.593c0.064-0.548-0.328-1.045-0.876-1.11
		c-0.551-0.069-1.046,0.328-1.11,0.876L43.11,31H32H20.89l-1.896-16.117c-0.064-0.549-0.557-0.947-1.11-0.876
		c-0.548,0.064-0.94,0.562-0.876,1.11l0.305,2.593l-4.92-2.186L18.598,4h7.492c0.478,2.838,2.942,5.01,5.91,5.01
		c2.969,0,5.44-2.17,5.917-5.01h7.485l6.206,11.524L46.688,17.709z"></path>
    <linearGradient id="b" x1="18.823" x2="45.178" y1="34.883" y2="61.237" gradientUnits="userSpaceOnUse">
      <stop offset="0" stop-color="#ffcd31"></stop>
      <stop offset="1" stop-color="#f79025"></stop>
    </linearGradient>
    <path fill="url(#b)" d="M44,34.12H20c-0.553,0-1,0.448-1,1V61c0,0.552,0.447,1,1,1h8.67c0.469,0,0.875-0.326,0.977-0.783
		l2.398-10.804l2.634,10.824C34.788,61.685,35.189,62,35.65,62H44c0.553,0,1-0.448,1-1V35.12C45,34.568,44.553,34.12,44,34.12z
		 M43,36.12V38H21v-1.88H43z M36.437,60l-3.465-14.236C32.862,45.315,32.461,45,32,45c-0.003,0-0.007,0-0.01,0
		c-0.465,0.005-0.865,0.329-0.967,0.783L27.867,60H21V40h22v20H36.437z"></path>
  </g>
</svg>
