<svg xmlns="http://www.w3.org/2000/svg" viewBox="0 0 128 128" id="restaurant">
  <path fill="#cd0000" d="M30,21.81H98a3,3,0,0,1,3,3v4a0,0,0,0,1,0,0H27a0,0,0,0,1,0,0v-4A3,3,0,0,1,30,21.81Z"></path>
  <rect width="103.01" height="68.37" x="12.5" y="52.32" fill="#ffcd00"></rect>
  <rect width="113.39" height="6.34" x="7.3" y="114.36" fill="#cd0000"></rect>
  <path fill="#ff641a" d="M31.56,28.84,20.14,61.34a6.54,6.54,0,0,1-6.26,4.17h0c-4.71,0-7.89-4.4-6-8.36L20.22,30.58a3,3,0,0,1,2.72-1.74Z"></path>
  <path fill="#d9f2ff" d="M42.38,28.84,34.9,60.76a6.47,6.47,0,0,1-6.42,4.75h-.79c-4.46,0-7.62-4-6.26-7.85L31.56,28.84Z"></path>
  <path fill="#ff641a" d="M53.18,28.84l-3.66,31.3A6.37,6.37,0,0,1,43,65.51H41.92c-4.19,0-7.3-3.52-6.43-7.27l6.89-29.4Z"></path>
  <path fill="#d9f2ff" d="M64,28.84V59.5a6.31,6.31,0,0,1-6.57,6H56.21c-3.91,0-7-3.09-6.54-6.65l3.51-30Z"></path>
  <path fill="#ff641a" d="M71.79,65.51H70.57a6.31,6.31,0,0,1-6.57-6V28.84H74.82l3.51,30C78.74,62.42,75.7,65.51,71.79,65.51Z"></path>
  <path fill="#d9f2ff" d="M86.08,65.51H85a6.37,6.37,0,0,1-6.53-5.37l-3.66-31.3h10.8l6.89,29.4C93.38,62,90.27,65.51,86.08,65.51Z"></path>
  <path fill="#ff641a" d="M100.31,65.51h-.79a6.47,6.47,0,0,1-6.42-4.75L85.62,28.84H96.44l10.13,28.82C107.93,61.54,104.77,65.51,100.31,65.51Z"></path>
  <path fill="#d9f2ff" d="M114.12,65.51h0a6.54,6.54,0,0,1-6.26-4.17L96.44,28.84h8.62a3,3,0,0,1,2.72,1.74l12.38,26.57C122,61.11,118.83,65.51,114.12,65.51Z"></path>
  <circle cx="64" cy="26.27" r="18.97" fill="#63ba00"></circle>
  <g>
    <rect width="19.21" height="37.4" x="23.26" y="76.96" fill="#f03800"></rect>
    <rect width="51.48" height="27.37" x="53.27" y="76.96" fill="#d9f2ff"></rect>
  </g>
  <g>
    <path d="M115.5,86.49a1,1,0,0,0-1,1v5a1,1,0,0,0,2,0v-5A1,1,0,0,0,115.5,86.49Z"></path>
    <path d="M120.7,113.36h-4.2V101.58a1,1,0,1,0-2,0v11.78h-71V77a1,1,0,0,0-1-1H23.26a1,1,0,0,0-1,1v36.4H13.5V66.49l.38,0a7.59,7.59,0,0,0,6.9-4.16,7.13,7.13,0,0,0,.57,1,7.75,7.75,0,0,0,6.34,3.16h.79a7.71,7.71,0,0,0,6.71-3.82,6.8,6.8,0,0,0,.63,1,7.75,7.75,0,0,0,6.1,2.84H43a7.66,7.66,0,0,0,6.61-3.59,7.47,7.47,0,0,0,.76,1,7.83,7.83,0,0,0,5.85,2.55h1.22A7.7,7.7,0,0,0,64,63a7.7,7.7,0,0,0,6.57,3.54h1.22A7.83,7.83,0,0,0,77.64,64a7.47,7.47,0,0,0,.76-1A7.66,7.66,0,0,0,85,66.51h1.07a7.75,7.75,0,0,0,6.1-2.84,6.8,6.8,0,0,0,.63-1,7.71,7.71,0,0,0,6.71,3.82h.79a7.75,7.75,0,0,0,6.34-3.16,7.13,7.13,0,0,0,.57-1,7.59,7.59,0,0,0,6.9,4.16l.38,0V78.38a1,1,0,0,0,2,0V66.15a7.41,7.41,0,0,0,4.14-3.09,6.49,6.49,0,0,0,.43-6.34L108.69,30.16a4,4,0,0,0-3.63-2.32h-3v-3a4,4,0,0,0-4-4H83.19A20.06,20.06,0,0,0,68.8,6.89a1,1,0,1,0-.48,1.94,18,18,0,1,1-8.64,0,1,1,0,0,0-.48-1.94A20.06,20.06,0,0,0,44.81,20.81H30a4,4,0,0,0-4,4v3h-3a4,4,0,0,0-3.63,2.32L6.93,56.73c-1.82,3.9.49,8.18,4.57,9.42v47.21H7.3a1,1,0,0,0-1,1v6.34a1,1,0,0,0,1,1H120.7a1,1,0,0,0,1-1v-6.34A1,1,0,0,0,120.7,113.36ZM105,62.19a5.71,5.71,0,0,1-4.7,2.32h-.79a5.49,5.49,0,0,1-5.45-4L86.88,29.84h8.85L105.62,58A4.54,4.54,0,0,1,105,62.19Zm0-32.35A2,2,0,0,1,106.88,31l12.38,26.57A4.56,4.56,0,0,1,119,62a5.66,5.66,0,0,1-4.84,2.52A5.53,5.53,0,0,1,108.8,61l-11-31.17Zm-7-7a2,2,0,0,1,2,2v3H83.9c0-.52.07-1,.07-1.57a18.79,18.79,0,0,0-.31-3.46Zm-14.42,7h1.21l6.71,28.63a4.58,4.58,0,0,1-.93,4,5.72,5.72,0,0,1-4.53,2.09H85A5.38,5.38,0,0,1,79.47,60L77.26,41.16A19.78,19.78,0,0,0,83.62,29.84ZM65,46.19a19.9,19.9,0,0,0,10.42-3.56L77.34,59a4.63,4.63,0,0,1-1.2,3.66,5.78,5.78,0,0,1-4.35,1.88H70.57a5.32,5.32,0,0,1-5.57-5ZM33.93,60.53a5.49,5.49,0,0,1-5.45,4h-.79A5.71,5.71,0,0,1,23,62.19,4.57,4.57,0,0,1,22.37,58l9.9-28.16h8.85C40.47,32.59,43.62,19.16,33.93,60.53Zm18.65-17.9A19.93,19.93,0,0,0,63,46.19V59.5a5.32,5.32,0,0,1-5.57,5H56.21a5.78,5.78,0,0,1-4.35-1.88A4.62,4.62,0,0,1,50.66,59Zm-1.84-1.47c-.27,2.3.75-6.38-2.21,18.87A5.38,5.38,0,0,1,43,64.51H41.92a5.72,5.72,0,0,1-4.53-2.09,4.6,4.6,0,0,1-.93-3.94l6.71-28.64h1.21A19.78,19.78,0,0,0,50.74,41.16ZM28,24.81a2,2,0,0,1,2-2H44.34A18.79,18.79,0,0,0,44,26.27c0,.53,0,1.05.07,1.57H28ZM8.74,57.57,21.12,31a2,2,0,0,1,1.82-1.16h7.21L19.2,61a5.53,5.53,0,0,1-5.32,3.5C9.9,64.51,7.21,60.87,8.74,57.57ZM24.26,78h17.2v35.4H24.26ZM119.7,119.7H8.3v-4.34H119.7Z"></path>
    <path d="M59.52 16.53a1 1 0 00-2 0v6.79a2.88 2.88 0 01-1.89-2.7V16.53a1 1 0 00-2 0v4.09a4.89 4.89 0 003.89 4.79V36a1 1 0 002 0V25.41a4.9 4.9 0 003.9-4.79V16.53a1 1 0 10-2 0v4.09a2.89 2.89 0 01-1.9 2.7zM69.18 25.35V36a1 1 0 002 0V25.35a4.88 4.88 0 003.19-4.83c0-2.75-1.88-5-4.19-5S66 17.77 66 20.52A4.88 4.88 0 0069.18 25.35zm1-7.82c1.19 0 2.19 1.37 2.19 3s-1 3-2.19 3S68 22.14 68 20.52 69 17.53 70.18 17.53zM53.27 76a1 1 0 00-1 1v27.37a1 1 0 001 1h51.47a1 1 0 001-1V77a1 1 0 00-1-1zm50.47 27.37H54.27V78h49.47z"></path>
    <path d="M61.68 90.77a1 1 0 00.7-.3L66.82 86a1 1 0 000-1.42 1 1 0 00-1.41 0L61 89.06a1 1 0 00.71 1.71zM61.22 96.66a1 1 0 00.71.29 1 1 0 00.7-.29L73 86.29a1 1 0 00-1.42-1.42L61.22 95.25A1 1 0 0061.22 96.66z"></path>
  </g>
</svg>
