<svg xmlns="http://www.w3.org/2000/svg" enable-background="new 0 0 64 64" viewBox="0 0 64 64" id="wig">
  <path fill="#b12d74" d="M34,41h6.19c5.047,0,9.933-1.769,13.81-5l0,0h0c-2.761,0-5-2.239-5-5V16.761
		c0-2.496-0.333-4.981-0.989-7.39v0C46.824,5.019,42.871,2,38.36,2h0c-1.552,0-3.083,0.361-4.471,1.055L32,3.999l-1.889-0.944
		C28.723,2.361,27.192,2,25.64,2h0c-4.511,0-8.464,3.019-9.65,7.371l0,0C15.333,11.78,15,14.265,15,16.761V31c0,2.761-2.239,5-5,5h0
		l0,0c3.877,3.231,8.764,5,13.81,5H30H34z"></path>
  <path fill="#dd54a9" d="M33.889 3.055c.391-.195.794-.36 1.205-.499C34.683 2.698 34.279 2.86 33.889 3.055zM28.851 2.54c.018.006.037.01.055.016C28.888 2.55 28.869 2.546 28.851 2.54zM28.906 2.556c.411.139.814.304 1.205.499C29.721 2.86 29.317 2.698 28.906 2.556zM35.094 2.556c.018-.006.037-.01.055-.016C35.131 2.546 35.112 2.55 35.094 2.556z"></path>
  <path fill="#6e7c84" d="M11,55v4c0,1.657,9.402,3,21,3s21-1.343,21-3v-4H11z"></path>
  <ellipse cx="32" cy="55" fill="#495760" rx="21" ry="3"></ellipse>
  <rect width="4" height="23" x="30" y="31" fill="#6e7c84"></rect>
  <path fill="#495760" d="M33.509,33.853C33.017,33.95,32.513,34,32,34c-5.523,0-10-5.82-10-13S26.477,8,32,8s10,5.82,10,13
		C42,27.513,38.316,32.907,33.509,33.853"></path>
  <path fill="#dd54a9" d="M45,31V16.761c0-2.496-0.333-4.981-0.989-7.39c-1.006-3.688-4.001-6.412-7.636-7.159
		c-0.415,0.084-0.824,0.194-1.226,0.327c-0.018,0.006-0.037,0.01-0.055,0.016c-0.411,0.139-0.814,0.304-1.205,0.499L32,3.999
		l-1.889-0.944c-0.391-0.195-0.794-0.36-1.205-0.499c-0.018-0.006-0.037-0.01-0.055-0.016c-0.402-0.133-0.811-0.243-1.226-0.327
		c-3.635,0.747-6.63,3.47-7.636,7.159C19.333,11.78,19,14.265,19,16.761V31c0,2.761-2.239,5-5,5c2.66,2.217,5.8,3.726,9.137,4.467
		c0.665,0.148,1.336,0.264,2.014,0.349l1.778-4.444c0.123-0.308,0.085-0.657-0.101-0.932S26.332,35,26,35c-1.103,0-2-0.897-2-2
		V19.242C24,17.454,25.455,16,27.243,16c1.399,0,2.716-0.545,3.707-1.535L32,13.414l1.051,1.052C34.042,15.455,35.358,16,36.757,16
		C38.545,16,40,17.454,40,19.242V33c0,1.103-0.897,2-2,2c-0.332,0-0.642,0.165-0.828,0.439s-0.224,0.624-0.101,0.932l1.778,4.444
		c0.679-0.084,1.35-0.201,2.015-0.349C44.2,39.726,47.34,38.217,50,36C47.239,36,45,33.761,45,31z"></path>
  <polygon fill="#b12d74" points="32 3.999 31 3.499 31 8.066 31 14.415 32 13.414 33 14.415 33 8.066 33 3.499"></polygon>
  <path d="M54,35c-2.206,0-4-1.794-4-4V16.761c0-2.585-0.345-5.16-1.024-7.652C47.673,4.334,43.308,1,38.36,1
		c-1.698,0-3.398,0.401-4.919,1.16L32,2.881L30.558,2.16C29.038,1.401,27.337,1,25.64,1c-4.948,0-9.313,3.334-10.615,8.108
		C14.345,11.601,14,14.176,14,16.761V31c0,2.206-1.794,4-4,4c-0.421,0-0.797,0.264-0.94,0.659c-0.143,0.396-0.023,0.84,0.3,1.109
		C13.409,40.142,18.541,42,23.81,42H29v9.031C22.579,51.159,10,51.817,10,55v4c0,3.712,16.839,4,22,4s22-0.288,22-4v-4
		c0-3.183-12.579-3.841-19-3.969V42h5.19c5.27,0,10.401-1.858,14.45-5.231c0.323-0.27,0.443-0.713,0.3-1.109
		C54.797,35.264,54.421,35,54,35z M40,26.476C38.462,30.444,35.342,33,32,33c-3.391,0-6.441-2.496-8-6.521v-7.237
		C24,17.454,25.455,16,27.243,16c1.399,0,2.716-0.545,3.707-1.535L32,13.414l1.051,1.052C34.042,15.455,35.358,16,36.757,16
		C38.545,16,40,17.454,40,19.242V26.476z M31,34.934C31.331,34.973,31.664,35,32,35c0.336,0,0.669-0.027,1-0.065V53h-2V34.934z
		 M16,31V16.761c0-2.407,0.321-4.806,0.954-7.127C18.02,5.729,21.591,3,25.64,3c1.389,0,2.781,0.328,4.024,0.949L31,4.617v6.969
		l-1.464,1.464C28.923,13.663,28.108,14,27.243,14C24.352,14,22,16.352,22,19.242V33c0,1.722,1.093,3.192,2.621,3.755l-1.291,3.227
		c-3.916-0.092-7.731-1.295-10.972-3.465C14.498,35.599,16,33.472,16,31z M25.477,40l1.452-3.629
		c0.123-0.308,0.085-0.657-0.101-0.932S26.332,35,26,35c-1.103,0-2-0.897-2-2v-2.402c1.361,1.828,3.091,3.17,5,3.864V40H25.477z
		 M32,61c-12.361,0-18.957-1.395-20-2.205v-1.869C16.613,58.82,27.932,59,32,59s15.387-0.18,20-2.074v1.869
		C50.957,59.605,44.361,61,32,61z M51.647,54.997C49.875,55.817,43.382,57,32,57s-17.875-1.183-19.647-2.003
		c1.661-0.781,7.361-1.775,16.647-1.964V54c0,0.553,0.448,1,1,1h4c0.552,0,1-0.447,1-1v-0.967
		C44.286,53.222,49.987,54.216,51.647,54.997z M35,34.462c1.909-0.693,3.639-2.035,5-3.863V33c0,1.103-0.897,2-2,2
		c-0.332,0-0.642,0.165-0.828,0.439s-0.224,0.624-0.101,0.932L38.523,40H35V34.462z M40.67,39.982l-1.291-3.227
		C40.907,36.192,42,34.722,42,33V19.242C42,16.352,39.648,14,36.757,14c-0.866,0-1.68-0.337-2.293-0.949L33,11.586V4.617
		l1.335-0.668C35.579,3.328,36.971,3,38.36,3c4.048,0,7.62,2.729,8.686,6.634C47.679,11.955,48,14.354,48,16.761V31
		c0,2.472,1.502,4.599,3.642,5.517C48.401,38.687,44.586,39.89,40.67,39.982z"></path>
</svg>
